<svg viewBox="0 0 157 225" xmlns="http://www.w3.org/2000/svg" xmlns:xlink="http://www.w3.org/1999/xlink" width="157.000000" height="225.000000" fill="none" customFrame="#000000">
	<path id="01" d="M75.4238 96.4233C78.5488 100.183 80.8682 104.602 82.3818 109.68C83.9443 114.709 84.7256 119.983 84.7256 125.5C84.7256 132.141 83.7734 138.098 81.8691 143.372C79.9648 148.596 77.3525 152.942 74.0322 156.409C70.6143 159.973 66.5615 162.659 61.874 164.465C57.1865 166.272 51.9619 167.175 46.2002 167.175C39.9014 167.175 34.2861 166.125 29.3545 164.026C24.4229 161.926 20.4189 159.045 17.3428 155.383C14.1201 151.575 11.7031 147.131 10.0918 142.053C8.5293 136.926 7.74805 131.409 7.74805 125.5C7.74805 119.69 8.50488 114.343 10.0186 109.46C11.5811 104.578 13.998 100.159 17.2695 96.2036C20.3945 92.395 24.4229 89.3921 29.3545 87.1948C34.2861 84.9976 39.9258 83.8989 46.2734 83.8989C52.9629 83.8989 58.7002 85.022 63.4854 87.2681C68.2705 89.5142 72.25 92.5659 75.4238 96.4233ZM68.5391 125.5C68.5391 113.879 66.5371 104.871 62.5332 98.4741C58.5781 92.0776 53.1826 88.8794 46.3467 88.8794C39.4131 88.8794 33.9443 92.0776 29.9404 98.4741C25.9365 104.871 23.9346 113.879 23.9346 125.5C23.9346 136.536 25.8389 145.422 29.6475 152.161C33.5049 158.85 39.0225 162.195 46.2002 162.195C53.3779 162.195 58.8955 158.85 62.7529 152.161C66.6104 145.422 68.5391 136.536 68.5391 125.5ZM151.596 164.832L102.23 164.832L102.23 159.631C103.695 159.534 105.966 159.338 109.042 159.045C112.167 158.704 114.315 158.362 115.487 158.02C117.001 157.532 118.148 156.75 118.93 155.676C119.76 154.553 120.175 152.893 120.175 150.696L120.175 99.2798L101.938 99.2798L101.938 93.1274L105.966 93.1274C111.239 93.1274 115.951 92.1509 120.102 90.1978C124.301 88.2446 127.304 86.145 129.11 83.8989L135.189 83.8989C135.043 87.0728 134.896 90.7837 134.75 95.0317C134.604 99.2798 134.53 103.088 134.53 106.458L134.53 149.89C134.53 151.599 134.896 153.137 135.629 154.504C136.41 155.823 137.509 156.799 138.925 157.434C140.194 157.971 142.27 158.459 145.15 158.899C148.031 159.338 150.18 159.583 151.596 159.631L151.596 164.832Z" fill="rgb(1,153,109)" fill-opacity="0.200000003" fill-rule="nonzero" />
</svg>
