<svg viewBox="0 0 176 225" xmlns="http://www.w3.org/2000/svg" xmlns:xlink="http://www.w3.org/1999/xlink" width="176.000000" height="225.000000" fill="none" customFrame="#000000">
	<path id="02" d="M75.2559 96.4233C78.3809 100.183 80.7002 104.602 82.2139 109.68C83.7764 114.709 84.5576 119.983 84.5576 125.5C84.5576 132.141 83.6055 138.098 81.7012 143.372C79.7969 148.596 77.1846 152.942 73.8643 156.409C70.4463 159.973 66.3936 162.659 61.7061 164.465C57.0186 166.272 51.7939 167.175 46.0322 167.175C39.7334 167.175 34.1182 166.125 29.1865 164.026C24.2549 161.926 20.251 159.045 17.1748 155.383C13.9521 151.575 11.5352 147.131 9.92383 142.053C8.36133 136.926 7.58008 131.409 7.58008 125.5C7.58008 119.69 8.33691 114.343 9.85059 109.46C11.4131 104.578 13.8301 100.159 17.1016 96.2036C20.2266 92.395 24.2549 89.3921 29.1865 87.1948C34.1182 84.9976 39.7578 83.8989 46.1055 83.8989C52.7949 83.8989 58.5322 85.022 63.3174 87.2681C68.1025 89.5142 72.082 92.5659 75.2559 96.4233ZM68.3711 125.5C68.3711 113.879 66.3691 104.871 62.3652 98.4741C58.4102 92.0776 53.0146 88.8794 46.1787 88.8794C39.2451 88.8794 33.7764 92.0776 29.7725 98.4741C25.7686 104.871 23.7666 113.879 23.7666 125.5C23.7666 136.536 25.6709 145.422 29.4795 152.161C33.3369 158.85 38.8545 162.195 46.0322 162.195C53.21 162.195 58.7275 158.85 62.585 152.161C66.4424 145.422 68.3711 136.536 68.3711 125.5ZM168.859 164.832L100.231 164.832L100.231 154.871C101.55 153.357 103.381 151.672 105.725 149.817C108.068 147.913 110.852 145.862 114.074 143.665C116.027 142.346 118.371 140.906 121.105 139.343C123.84 137.781 126.94 136.072 130.407 134.216C134.265 132.166 137.219 130.359 139.27 128.796C141.369 127.234 143.273 125.305 144.982 123.01C146.105 121.497 147.009 119.617 147.692 117.371C148.376 115.076 148.718 111.829 148.718 107.629C148.718 101.526 147.082 97.0581 143.811 94.2261C140.539 91.3452 136.34 89.9048 131.213 89.9048C128.039 89.9048 125.036 90.5396 122.204 91.8091C119.372 93.0298 117.248 94.7388 115.832 96.936C116.174 98.4985 116.589 100.354 117.077 102.502C117.614 104.651 117.883 106.75 117.883 108.801C117.883 110.657 117.102 112.317 115.539 113.782C114.025 115.198 111.755 115.906 108.728 115.906C106.286 115.906 104.406 115.076 103.088 113.416C101.77 111.707 101.11 109.436 101.11 106.604C101.11 103.967 101.843 101.331 103.308 98.6938C104.772 96.0083 106.872 93.5425 109.606 91.2964C112.292 89.0991 115.612 87.3169 119.567 85.9497C123.522 84.5825 127.795 83.8989 132.385 83.8989C142.395 83.8989 150.329 86.145 156.188 90.6372C162.097 95.0806 165.051 101.038 165.051 108.508C165.051 112.073 164.514 115.32 163.439 118.25C162.414 121.179 160.729 123.767 158.386 126.013C155.798 128.503 152.771 130.652 149.304 132.458C145.837 134.216 140.539 136.682 133.41 139.856C129.162 141.76 125.207 143.762 121.545 145.862C117.883 147.913 114.88 149.915 112.536 151.868L168.859 151.868L168.859 164.832Z" fill="rgb(1,153,109)" fill-opacity="0.200000003" fill-rule="nonzero" />
</svg>
