<svg viewBox="0 0 175 225" xmlns="http://www.w3.org/2000/svg" xmlns:xlink="http://www.w3.org/1999/xlink" width="175.000000" height="225.000000" fill="none" customFrame="#000000">
	<path id="03" d="M75.2686 96.4233C78.3936 100.183 80.7129 104.602 82.2266 109.68C83.7891 114.709 84.5703 119.983 84.5703 125.5C84.5703 132.141 83.6182 138.098 81.7139 143.372C79.8096 148.596 77.1973 152.942 73.877 156.409C70.459 159.973 66.4062 162.659 61.7188 164.465C57.0312 166.272 51.8066 167.175 46.0449 167.175C39.7461 167.175 34.1309 166.125 29.1992 164.026C24.2676 161.926 20.2637 159.045 17.1875 155.383C13.9648 151.575 11.5479 147.131 9.93652 142.053C8.37402 136.926 7.59277 131.409 7.59277 125.5C7.59277 119.69 8.34961 114.343 9.86328 109.46C11.4258 104.578 13.8428 100.159 17.1143 96.2036C20.2393 92.395 24.2676 89.3921 29.1992 87.1948C34.1309 84.9976 39.7705 83.8989 46.1182 83.8989C52.8076 83.8989 58.5449 85.022 63.3301 87.2681C68.1152 89.5142 72.0947 92.5659 75.2686 96.4233ZM68.3838 125.5C68.3838 113.879 66.3818 104.871 62.3779 98.4741C58.4229 92.0776 53.0273 88.8794 46.1914 88.8794C39.2578 88.8794 33.7891 92.0776 29.7852 98.4741C25.7812 104.871 23.7793 113.879 23.7793 125.5C23.7793 136.536 25.6836 145.422 29.4922 152.161C33.3496 158.85 38.8672 162.195 46.0449 162.195C53.2227 162.195 58.7402 158.85 62.5977 152.161C66.4551 145.422 68.3838 136.536 68.3838 125.5ZM127.856 191.565C123.267 191.565 119.067 190.979 115.259 189.807C111.45 188.684 108.179 187.146 105.444 185.193C102.71 183.24 100.586 180.994 99.0723 178.455C97.6074 175.916 96.875 173.303 96.875 170.618C96.875 168.225 97.4609 166.077 98.6328 164.172C99.8047 162.219 101.685 161.243 104.272 161.243C107.202 161.243 109.424 161.975 110.938 163.44C112.5 164.856 113.281 166.492 113.281 168.347C113.281 169.91 113.013 171.887 112.476 174.28C111.987 176.672 111.597 178.381 111.304 179.407C111.646 179.846 112.256 180.432 113.135 181.165C114.062 181.897 115.186 182.556 116.504 183.142C118.066 183.875 119.702 184.46 121.411 184.9C123.12 185.339 125.537 185.559 128.662 185.559C131.592 185.559 134.399 185.071 137.085 184.094C139.819 183.118 142.212 181.555 144.263 179.407C146.411 177.161 148.071 174.524 149.243 171.497C150.464 168.518 151.074 164.587 151.074 159.705C151.074 157.068 150.781 154.456 150.195 151.868C149.658 149.28 148.633 147.034 147.119 145.129C145.605 143.225 143.53 141.76 140.894 140.735C138.306 139.661 135.01 139.124 131.006 139.124L121.411 139.124L121.411 130.701L127.783 130.701C134.521 130.701 139.38 128.845 142.358 125.134C145.337 121.423 146.826 115.833 146.826 108.362C146.826 102.258 145.386 97.6685 142.505 94.5923C139.624 91.4673 135.547 89.9048 130.273 89.9048C127.734 89.9048 125.635 90.2222 123.975 90.8569C122.363 91.4429 121.045 92.0288 120.02 92.6147C118.799 93.2983 117.798 94.0552 117.017 94.8853C116.235 95.7153 115.649 96.3257 115.259 96.7163C115.601 98.2788 116.016 100.208 116.504 102.502C116.992 104.749 117.236 106.897 117.236 108.948C117.236 110.754 116.455 112.39 114.893 113.855C113.379 115.271 111.133 115.979 108.154 115.979C105.566 115.979 103.662 115.051 102.441 113.196C101.27 111.34 100.684 109.192 100.684 106.75C100.684 104.211 101.392 101.624 102.808 98.9868C104.224 96.3501 106.323 93.8843 109.106 91.5894C111.89 89.2944 115.283 87.439 119.287 86.0229C123.291 84.6069 127.905 83.8989 133.13 83.8989C139.136 83.8989 144.092 84.8022 147.998 86.6089C151.953 88.3667 155.054 90.5151 157.3 93.0542C159.497 95.5444 161.011 98.1567 161.841 100.891C162.671 103.625 163.086 105.969 163.086 107.922C163.086 110.364 162.744 112.83 162.061 115.32C161.377 117.761 160.254 120.032 158.691 122.131C156.982 124.426 154.712 126.526 151.88 128.43C149.097 130.286 145.581 131.799 141.333 132.971L141.333 134.143C144.067 134.387 146.973 134.998 150.049 135.974C153.174 136.951 155.981 138.391 158.472 140.295C161.06 142.297 163.184 144.885 164.844 148.059C166.504 151.184 167.334 155.164 167.334 159.998C167.334 169.373 163.574 176.965 156.055 182.776C148.535 188.635 139.136 191.565 127.856 191.565Z" fill="rgb(1,153,109)" fill-opacity="0.200000003" fill-rule="nonzero" />
</svg>
