<svg viewBox="0 0 79.5652 23.04" xmlns="http://www.w3.org/2000/svg" xmlns:xlink="http://www.w3.org/1999/xlink" width="79.565186" height="23.040039" fill="none" customFrame="#000000">
	<path id="Logo" d="M28.4163 0L23.9163 0L23.9163 22.68L28.4163 22.68L28.4163 0ZM31.3493 3.51C31.3493 2.79 31.5993 2.18 32.0993 1.68C32.6193 1.16 33.2393 0.900001 33.9593 0.900001C34.6793 0.900001 35.2893 1.16 35.7893 1.68C36.3093 2.18 36.5693 2.79 36.5693 3.51C36.5693 4.23 36.3093 4.85 35.7893 5.37C35.2893 5.87 34.6793 6.12 33.9593 6.12C33.2393 6.12 32.6193 5.87 32.0993 5.37C31.5993 4.85 31.3493 4.23 31.3493 3.51ZM55.8122 3.51Q55.8122 2.93671 56.0235 2.4564Q56.2103 2.03188 56.5622 1.68C57.0822 1.16 57.7022 0.900001 58.4222 0.900001C59.1422 0.900001 59.7522 1.16 60.2522 1.68C60.7722 2.18 61.0322 2.79 61.0322 3.51C61.0322 4.23 60.7722 4.85 60.2522 5.37C59.7522 5.87 59.1422 6.12 58.4222 6.12C57.7022 6.12 57.0822 5.87 56.5622 5.37Q56.1846 4.97731 55.9971 4.50858Q55.8122 4.04626 55.8122 3.51ZM9.18 1.44L13.05 1.44L22.29 22.68L17.01 22.68L15.18 18.18L6.93 18.18L5.16 22.68L0 22.68L9.18 1.44ZM10.98 7.62L8.4 14.22L13.59 14.22L10.98 7.62ZM63.9952 12.24C63.5752 13.18 63.3652 14.23 63.3652 15.39C63.3652 16.55 63.5752 17.6 63.9952 18.54Q64.4684 19.5993 65.1957 20.4384Q65.4365 20.7163 65.7052 20.97C66.4452 21.63 67.3052 22.14 68.2852 22.5C69.2852 22.86 70.3452 23.04 71.4652 23.04C72.5852 23.04 73.6352 22.86 74.6152 22.5C75.6152 22.14 76.4752 21.63 77.1952 20.97C77.9352 20.29 78.5152 19.48 78.9352 18.54Q79.5652 17.13 79.5652 15.39Q79.5652 13.65 78.9352 12.24C78.5152 11.3 77.9352 10.5 77.1952 9.84C76.4752 9.16 75.6152 8.64 74.6152 8.28C73.6352 7.92 72.5852 7.74 71.4652 7.74C70.3452 7.74 69.2852 7.92 68.2852 8.28Q67.1826 8.68501 66.2826 9.36001Q65.9827 9.58501 65.7052 9.84C64.9852 10.5 64.4152 11.3 63.9952 12.24ZM31.7093 8.1L36.2093 8.1L36.2093 22.68L31.7093 22.68L31.7093 8.1ZM42.7723 8.1L37.9123 8.1L43.9423 22.68L48.7123 22.68L54.4723 8.1L49.9423 8.1L46.5223 18L46.4623 18L42.7723 8.1ZM56.1722 8.1L60.6722 8.1L60.6722 22.68L56.1722 22.68L56.1722 8.1ZM68.7952 18.06C68.1752 17.38 67.8652 16.49 67.8652 15.39C67.8652 14.29 68.1752 13.4 68.7952 12.72Q68.9871 12.5161 69.2089 12.353Q70.097 11.7 71.4652 11.7C72.6052 11.7 73.4852 12.04 74.1052 12.72Q74.3083 12.9358 74.4685 13.1799Q75.0652 14.0891 75.0652 15.39Q75.0652 16.6909 74.4684 17.6001Q74.3083 17.8442 74.1052 18.06C73.4852 18.74 72.6052 19.08 71.4652 19.08Q70.097 19.08 69.2089 18.427Q68.9871 18.2639 68.7952 18.06Z" fill="rgb(1,153,109)" fill-rule="evenodd" />
</svg>
